Walking01_kinetics.mot
version=1
nRows=36
nColumns=19
inDegrees=yes
endheader
time	1_ground_force_vx	1_ground_force_vy	1_ground_force_vz	1_ground_force_px	1_ground_force_py	1_ground_force_pz	2_ground_force_vx	2_ground_force_vy	2_ground_force_vz	2_ground_force_px	2_ground_force_py	2_ground_force_pz	1_ground_torque_x	1_ground_torque_y	1_ground_torque_z	2_ground_torque_x	2_ground_torque_y	2_ground_torque_z
  0.51000000	177.49831013	579.38585044	-27.80450785	 -0.34247942	 -0.00042341	  0.11446766	-102.34916741	477.74355589	 -7.08895512	  0.18426832	  0.00231852	 -0.01422999	  0.00221862	  1.71399795	 -0.00109114	 -0.00049436	  0.37934286	 -0.00001253
  0.51100000	176.92035802	571.98772021	-27.12371621	 -0.34226368	 -0.00042373	  0.11440464	-103.52977799	483.48594196	 -7.22231195	  0.18460493	  0.00231896	 -0.01420722	  0.00216671	  1.67389389	 -0.00106561	 -0.00055368	  0.42486685	 -0.00001404
  0.51200000	176.27562828	564.43985627	-26.40077852	 -0.34204523	 -0.00042405	  0.11433655	-104.72123481	487.78276713	 -7.24157972	  0.18487719	  0.00231932	 -0.01417376	  0.00212047	  1.63817268	 -0.00104287	 -0.00061270	  0.47015542	 -0.00001553
  0.51300000	175.55806616	556.74613501	-25.63715188	 -0.34182147	 -0.00042439	  0.11426253	-105.87567002	490.66020536	 -7.16675099	  0.18510547	  0.00231962	 -0.01414123	  0.00208076	  1.60749467	 -0.00102334	 -0.00067029	  0.51433949	 -0.00001699
  0.51400000	174.76110464	548.90366712	-24.83547811	 -0.34159024	 -0.00042474	  0.11418261	-106.94682972	492.19873660	 -7.02020413	  0.18530828	  0.00231988	 -0.01411722	  0.00204761	  1.58188437	 -0.00100703	 -0.00072574	  0.55689573	 -0.00001840
  0.51500000	173.87803091	540.90357930	-23.99920842	 -0.34135065	 -0.00042510	  0.11409778	-107.89195368	492.50664834	 -6.82370109	  0.18549806	  0.00232013	 -0.01410434	  0.00202025	  1.56074771	 -0.00099358	 -0.00077882	  0.59761978	 -0.00001975
  0.51600000	172.90298898	532.73237657	-23.13219263	 -0.34110376	 -0.00042548	  0.11400873	-108.67399229	491.71107184	 -6.59652878	  0.18568184	  0.00232037	 -0.01410197	  0.00199742	  1.54310982	 -0.00098235	 -0.00082944	  0.63646220	 -0.00002103
  0.51700000	171.83194986	524.37470825	-22.23833143	 -0.34085232	 -0.00042587	  0.11391494	-109.26372876	489.95517401	 -6.35501045	  0.18586349	  0.00232060	 -0.01410836	  0.00197771	  1.52788196	 -0.00097265	 -0.00087769	  0.67349304	 -0.00002225
  0.51800000	170.66309035	515.81770354	-21.32135509	 -0.34059903	 -0.00042626	  0.11381492	-109.64130041	487.39236328	 -6.11330674	  0.18604519	  0.00232084	 -0.01412122	  0.00195976	  1.51401355	 -0.00096383	 -0.00092413	  0.70912810	 -0.00002343
  0.51900000	169.39654773	507.05484665	-20.38470194	 -0.34034475	 -0.00042666	  0.11370726	-109.79669102	484.17726422	 -5.88428589	  0.18622764	  0.00232108	 -0.01413746	  0.00194232	  1.50054154	 -0.00095525	 -0.00096997	  0.74430002	 -0.00002459
  0.52000000	168.03362057	498.08666401	-19.43143886	 -0.34008808	 -0.00042706	  0.11359147	-109.72867004	480.45554211	 -5.67893834	  0.18640978	  0.00232131	 -0.01415320	  0.00192427	  1.48659432	 -0.00094637	 -0.00101665	  0.78012348	 -0.00002577
  0.52100000	166.57563621	488.91809780	-18.46419399	 -0.33982660	 -0.00042748	  0.11346837	-109.44261755	476.35481414	 -5.50441754	  0.18658823	  0.00232155	 -0.01416433	  0.00190457	  1.47137774	 -0.00093668	 -0.00106490	  0.81714480	 -0.00002700
  0.52200000	165.02307793	479.55486216	-17.48509402	 -0.33955835	 -0.00042791	  0.11334009	-108.94900751	471.98235898	 -5.36256615	  0.18675782	  0.00232177	 -0.01416731	  0.00188229	  1.45416197	 -0.00092572	 -0.00111411	  0.85490300	 -0.00002825
  0.52300000	163.37535168	470.00080839	-16.49575682	 -0.33928243	 -0.00042835	  0.11320968	-108.26360378	467.43270385	 -5.25028305	  0.18691347	  0.00232197	 -0.01415975	  0.00185656	  1.43429132	 -0.00091307	 -0.00116281	  0.89227512	 -0.00002948
  0.52400000	161.63091258	460.25761895	-15.49757674	 -0.33899897	 -0.00042880	  0.11308063	-107.40824375	462.79866327	 -5.16116747	  0.18705234	  0.00232215	 -0.01414103	  0.00182674	  1.41124958	 -0.00089841	 -0.00120958	  0.92816047	 -0.00003067
  0.52500000	159.78726670	450.32791815	-14.49259866	 -0.33870871	 -0.00042925	  0.11295630	-106.41037546	458.17674866	 -5.08737780	  0.18717435	  0.00232231	 -0.01411301	  0.00179252	  1.38481663	 -0.00088158	 -0.00125342	  0.96180465	 -0.00003178
  0.52600000	157.84064615	440.22066497	-13.48471199	 -0.33841258	 -0.00042971	  0.11283960	-105.30123505	453.66582653	 -5.02116393	  0.18728127	  0.00232245	 -0.01408078	  0.00175427	  1.35526504	 -0.00086277	 -0.00129364	  0.99266961	 -0.00003280
  0.52700000	155.78522644	429.95433847	-12.48006976	 -0.33811076	 -0.00043017	  0.11273278	-104.11430990	449.36536197	 -4.95546315	  0.18737661	  0.00232258	 -0.01405260	  0.00171303	  1.32340288	 -0.00084248	 -0.00132960	  1.02026059	 -0.00003371
  0.52800000	153.61194698	419.55494653	-11.48605074	 -0.33780162	 -0.00043063	  0.11263772	-102.88518609	445.37730595	 -4.88328255	  0.18746778	  0.00232270	 -0.01403875	  0.00167025	  1.29035729	 -0.00082145	 -0.00136079	  1.04419490	 -0.00003450
  0.52900000	151.30773869	409.05164035	-10.50961130	 -0.33748079	 -0.00043110	  0.11255591	-101.65213293	441.80792300	 -4.79679350	  0.18756836	  0.00232283	 -0.01404969	  0.00162749	  1.25731658	 -0.00080041	 -0.00138709	  1.06437326	 -0.00003517
  0.53000000	148.85616507	398.47422948	 -9.55629073	 -0.33714120	 -0.00043158	  0.11248807	-100.45623985	438.76357321	 -4.68739469	  0.18769761	  0.00232300	 -0.01409434	  0.00158635	  1.22553806	 -0.00078018	 -0.00140874	  1.08098922	 -0.00003572
  0.53100000	146.23931076	387.85314065	 -8.63008094	 -0.33677417	 -0.00043209	  0.11243319	-99.34077981	436.34059036	 -4.54664121	  0.18787709	  0.00232323	 -0.01417874	  0.00154886	  1.19657675	 -0.00076174	 -0.00142616	  1.09435192	 -0.00003616
  0.53200000	143.43932381	377.21936744	 -7.73358090	 -0.33637084	 -0.00043264	  0.11238846	-98.35027020	434.61641243	 -4.36642204	  0.18812644	  0.00232355	 -0.01430528	  0.00151744	  1.17230249	 -0.00074629	 -0.00143966	  1.10471297	 -0.00003650
  0.53300000	140.43847448	366.60271444	 -6.86799788	 -0.33592359	 -0.00043324	  0.11235061	-97.52955891	433.64722027	 -4.13744677	  0.18846053	  0.00232398	 -0.01447249	  0.00149433	  1.15445020	 -0.00073493	 -0.00144946	  1.11223274	 -0.00003675
  0.53400000	137.21836817	356.02930839	 -6.03297858	 -0.33542679	 -0.00043391	  0.11231715	-96.92276300	433.46973744	 -3.84750620	  0.18888783	  0.00232453	 -0.01467557	  0.00148090	  1.14407416	 -0.00072832	 -0.00145571	  1.11703421	 -0.00003691
  0.53500000	133.75939639	345.52011375	 -5.22639551	 -0.33487640	 -0.00043464	  0.11228571	-96.57175569	434.10300803	 -3.48165652	  0.18940991	  0.00232520	 -0.01490754	  0.00147752	  1.14145682	 -0.00072666	 -0.00145859	  1.11923842	 -0.00003698
  0.53600000	130.04082870	335.09099919	 -4.44429069	 -0.33426874	 -0.00043545	  0.11225164	-96.51411532	435.54853718	 -3.02441828	  0.19002174	  0.00232599	 -0.01516084	  0.00148405	  1.14650238	 -0.00072987	 -0.00145822	  1.11895790	 -0.00003697
  0.53700000	126.04154635	324.75443923	 -3.68145600	 -0.33359920	 -0.00043634	  0.11220707	-96.78089018	437.78838435	 -2.46202824	  0.19071277	  0.00232688	 -0.01542844	  0.00150043	  1.15916251	 -0.00073793	 -0.00145474	  1.11628434	 -0.00003688
  0.53800000	121.74147258	314.52262511	 -2.93289506	 -0.33286198	 -0.00043734	  0.11214314	-97.39456112	440.78185378	 -1.78335676	  0.19146840	  0.00232786	 -0.01570388	  0.00152683	  1.17955099	 -0.00075091	 -0.00144823	  1.11128822	 -0.00003672
  0.53900000	117.12406410	304.41043161	 -2.19549903	 -0.33205081	 -0.00043844	  0.11205375	-98.36730863	444.46389527	 -0.98016613	  0.19227231	  0.00232889	 -0.01598093	  0.00156336	  1.20777784	 -0.00076888	 -0.00143872	  1.10399151	 -0.00003648
  0.54000000	112.18026714	294.43635075	 -1.46902196	 -0.33116076	 -0.00043967	  0.11193748	-99.69974681	448.74940381	 -0.04793975	  0.19310954	  0.00232998	 -0.01625370	  0.00160978	  1.24364043	 -0.00079171	 -0.00142603	  1.09425645	 -0.00003615
  0.54100000	106.91383436	284.62137007	 -0.75615397	 -0.33019079	 -0.00044101	  0.11179746	-101.38024925	453.54308075	  1.01260144	  0.19396996	  0.00233109	 -0.01651743	  0.00166495	  1.28626012	 -0.00081884	 -0.00140955	  1.08161329	 -0.00003574
  0.54200000	101.34715984	274.98771041	 -0.06197565	 -0.32914579	 -0.00044247	  0.11164047	-103.38516923	458.74920239	  2.19423524	  0.19484946	  0.00233223	 -0.01676905	  0.00172648	  1.33379547	 -0.00084910	 -0.00138810	  1.06515388	 -0.00003519
  0.54300000	 95.52660594	265.55854384	  0.60692348	 -0.32803731	 -0.00044401	  0.11147642	-105.68019042	464.27723709	  3.48305675	  0.19574755	  0.00233339	 -0.01700705	  0.00179061	  1.38333739	 -0.00088064	 -0.00136000	  1.04358790	 -0.00003448
  0.54400000	 89.52626008	256.35707534	  1.24330689	 -0.32688262	 -0.00044560	  0.11131745	-108.22216447	470.04414743	  4.85951298	  0.19666370	  0.00233458	 -0.01723109	  0.00185227	  1.43097303	 -0.00091096	 -0.00132332	  1.01544133	 -0.00003355
  0.54500000	 83.44880946	247.40259612	  1.83977017	 -0.32570210	 -0.00044722	  0.11117592	-110.96071510	475.97570985	  6.30068343	  0.19759550	  0.00233578	 -0.01744185	  0.00190535	  1.47198262	 -0.00093707	 -0.00127628	  0.97934713	 -0.00003236
